<svg width="126" height="38" viewBox="0 0 126 38" fill="none" xmlns="http://www.w3.org/2000/svg">
<g clip-path="url(#clip0)">
<path d="M18.8953 1.52588e-05C8.45993 1.52588e-05 0 8.50654 0 18.9997C0 29.4939 8.45993 38 18.8953 38C29.3311 38 37.7906 29.4939 37.7906 18.9997C37.7906 8.50722 29.3315 0.000922097 18.8951 0.000922097L18.8953 1.52588e-05ZM27.5605 27.403C27.2212 27.9627 26.496 28.1381 25.9412 27.7971C21.5041 25.0701 15.9191 24.4542 9.34192 25.965C8.70811 26.1111 8.07634 25.7116 7.93194 25.0745C7.78685 24.4371 8.18239 23.8019 8.81777 23.6567C16.0155 22.002 22.1895 22.7142 27.17 25.7744C27.725 26.117 27.901 26.8453 27.5603 27.4034L27.5605 27.403ZM29.8733 22.2303C29.4459 22.9275 28.5393 23.1462 27.8469 22.7181C22.769 19.5794 15.0259 18.6702 9.01837 20.5039C8.23924 20.7405 7.41636 20.299 7.1799 19.517C6.94524 18.7335 7.38455 17.9077 8.16231 17.6695C15.0245 15.5758 23.5553 16.5899 29.3879 20.194C30.0806 20.6228 30.2995 21.5349 29.873 22.2305L29.8733 22.2303ZM30.0718 16.8431C23.9811 13.206 13.9345 12.8716 8.1201 14.646C7.18643 14.9307 6.19906 14.4007 5.91611 13.4619C5.63317 12.5226 6.1598 11.5304 7.09414 11.245C13.7686 9.20761 24.8642 9.60125 31.8755 13.7866C32.7154 14.2877 32.9909 15.3784 32.4931 16.2217C31.9967 17.0662 30.9091 17.3445 30.0721 16.8431H30.0718ZM51.4078 17.5401C48.1454 16.7578 47.5646 16.2088 47.5646 15.0551C47.5646 13.9651 48.5851 13.2316 50.1027 13.2316C51.5739 13.2316 53.0326 13.7886 54.5619 14.9353C54.6082 14.97 54.6662 14.9838 54.7233 14.9748C54.7804 14.9661 54.8309 14.9346 54.8643 14.8872L56.4573 12.6292C56.5227 12.5362 56.5049 12.408 56.4167 12.337C54.5965 10.8684 52.5468 10.1544 50.151 10.1544C46.6284 10.1544 44.1679 12.2801 44.1679 15.3214C44.1679 18.5829 46.2904 19.7377 49.9583 20.6291C53.0802 21.3522 53.6071 21.958 53.6071 23.0409C53.6071 24.2409 52.5416 24.9869 50.827 24.9869C48.9227 24.9869 47.3694 24.3419 45.6318 22.8288C45.5887 22.7913 45.5296 22.7743 45.475 22.7775C45.4175 22.7823 45.3649 22.809 45.3283 22.8533L43.5422 24.9908C43.4673 25.0795 43.4768 25.212 43.5634 25.2887C45.5851 27.1035 48.0716 28.0621 50.7549 28.0621C54.5507 28.0621 57.0036 25.9766 57.0036 22.7487C57.0103 20.0238 55.388 18.5151 51.4146 17.5431L51.4078 17.5401ZM65.5912 14.3048C63.9459 14.3048 62.5963 14.9564 61.4835 16.2916V14.7887C61.4835 14.67 61.3878 14.5734 61.2701 14.5734H58.3488C58.2308 14.5734 58.1353 14.67 58.1353 14.7887V31.4878C58.1353 31.6064 58.2308 31.7031 58.3488 31.7031H61.2701C61.3878 31.7031 61.4835 31.6064 61.4835 31.4878V26.2166C62.5966 27.4726 63.9463 28.0863 65.5912 28.0863C68.6483 28.0863 71.7431 25.72 71.7431 21.1964C71.7476 16.6716 68.6519 14.3045 65.5946 14.3045L65.5912 14.3048ZM68.3462 21.1964C68.3462 23.4999 66.935 25.1074 64.9145 25.1074C62.917 25.1074 61.4102 23.4268 61.4102 21.1964C61.4102 18.9661 62.917 17.2853 64.9145 17.2853C66.9023 17.2851 68.3464 18.9296 68.3464 21.1961L68.3462 21.1964ZM79.6753 14.3048C75.7382 14.3048 72.6537 17.3532 72.6537 21.2456C72.6537 25.0956 75.717 28.112 79.627 28.112C83.5781 28.112 86.672 25.0738 86.672 21.1963C86.672 17.3323 83.5988 14.3052 79.675 14.3052L79.6753 14.3048ZM79.6753 25.1303C77.5811 25.1303 76.0024 23.4384 76.0024 21.1952C76.0024 18.9425 77.5266 17.3078 79.627 17.3078C81.7346 17.3078 83.324 18.9997 83.324 21.2444C83.324 23.4967 81.7897 25.1303 79.6755 25.1303H79.6753ZM95.0793 14.5734H91.8647V11.2686C91.8647 11.1502 91.7695 11.0535 91.6515 11.0535H88.7306C88.6124 11.0535 88.5165 11.1502 88.5165 11.2686V14.5734H87.1119C86.9944 14.5734 86.8992 14.67 86.8992 14.7887V17.3132C86.8992 17.4317 86.9944 17.5285 87.1119 17.5285H88.5165V24.0607C88.5165 26.7005 89.8232 28.0389 92.4001 28.0389C93.448 28.0389 94.3173 27.8213 95.1366 27.3542C95.2032 27.3167 95.2445 27.2446 95.2445 27.1679V24.7639C95.2445 24.6897 95.2061 24.6196 95.1429 24.5808C95.0793 24.5406 95.0001 24.5386 94.9349 24.571C94.3721 24.8558 93.8282 24.9871 93.2201 24.9871C92.2828 24.9871 91.8647 24.5592 91.8647 23.6002V17.5297H95.0793C95.1973 17.5297 95.2923 17.4331 95.2923 17.3144V14.7901C95.2968 14.6714 95.202 14.5748 95.0825 14.5748L95.0793 14.5734ZM106.28 14.5863V14.1804C106.28 12.9863 106.735 12.4539 107.756 12.4539C108.365 12.4539 108.855 12.5755 109.402 12.7592C109.47 12.7806 109.54 12.7699 109.595 12.7293C109.651 12.6887 109.683 12.6236 109.683 12.5546V10.0793C109.683 9.98467 109.623 9.90096 109.532 9.87304C108.953 9.69993 108.213 9.52228 107.104 9.52228C104.406 9.52228 102.98 11.0501 102.98 13.939V14.5607H101.576C101.458 14.5607 101.362 14.6573 101.362 14.7758V17.3132C101.362 17.4317 101.458 17.5285 101.576 17.5285H102.98V27.6042C102.98 27.7228 103.075 27.8195 103.193 27.8195H106.114C106.232 27.8195 106.328 27.7228 106.328 27.6042V17.5292H109.056L113.234 27.6024C112.759 28.6608 112.293 28.8714 111.656 28.8714C111.142 28.8714 110.6 28.7168 110.045 28.4119C109.993 28.3831 109.931 28.3783 109.875 28.3958C109.82 28.4155 109.773 28.4573 109.749 28.5117L108.759 30.6959C108.712 30.7992 108.752 30.9203 108.851 30.9739C109.885 31.5368 110.818 31.777 111.971 31.777C114.128 31.777 115.32 30.7667 116.371 28.0487L121.439 14.8804C121.465 14.8141 121.457 14.7392 121.416 14.6805C121.376 14.6222 121.312 14.587 121.241 14.587H118.2C118.108 14.587 118.027 14.6453 117.997 14.7313L114.882 23.6791L111.47 14.7254C111.439 14.6421 111.359 14.587 111.27 14.587H106.279L106.28 14.5863ZM99.786 14.5734H96.8647C96.7467 14.5734 96.6506 14.67 96.6506 14.7887V27.6042C96.6506 27.7229 96.7467 27.8195 96.8647 27.8195H99.786C99.9038 27.8195 100 27.7229 100 27.6042V14.7896C100 14.7613 99.9947 14.7333 99.984 14.7071C99.9732 14.6809 99.9574 14.6571 99.9375 14.6371C99.9176 14.6171 99.8939 14.6013 99.8679 14.5905C99.8418 14.5797 99.8139 14.5742 99.7858 14.5743L99.786 14.5734ZM98.342 8.7382C97.1847 8.7382 96.2456 9.6802 96.2456 10.8439C96.2456 12.0083 97.1849 12.9514 98.342 12.9514C99.4988 12.9514 100.437 12.0083 100.437 10.8439C100.437 9.68044 99.4984 8.7382 98.3431 8.7382H98.342ZM123.933 18.6938C122.777 18.6938 121.878 17.7602 121.878 16.6265C121.878 15.4927 122.789 14.5484 123.944 14.5484C125.1 14.5484 126 15.4818 126 16.6147C126 17.7484 125.088 18.6938 123.933 18.6938H123.933ZM123.945 14.754C122.892 14.754 122.095 15.5957 122.095 16.6265C122.095 17.6567 122.886 18.4871 123.934 18.4871C124.987 18.4871 125.785 17.6461 125.785 16.6147C125.785 15.5844 124.993 14.754 123.946 14.754H123.945ZM124.4 16.8272L124.982 17.6459H124.492L123.968 16.8949H123.518V17.6459H123.108V15.4759H124.07C124.571 15.4759 124.901 15.7339 124.901 16.1682C124.903 16.5239 124.698 16.7413 124.402 16.8273H124.4V16.8272ZM124.053 15.8483H123.518V16.5346H124.053C124.32 16.5346 124.48 16.4032 124.48 16.1911C124.48 15.9678 124.319 15.8483 124.053 15.8483H124.053V15.8483Z" fill="#2EBD59"/>
</g>
<defs>
<clipPath id="clip0">
<rect width="126" height="38" fill="white"/>
</clipPath>
</defs>
</svg>
