<svg width="124" height="45" viewBox="0 0 124 45" fill="none" xmlns="http://www.w3.org/2000/svg">
<path d="M56 30.0816H60.9968L63.7729 16.1574H58.776L56 30.0816ZM59.817 14.898H65.7161L66.6877 10H60.7886L59.817 14.898ZM62.9401 34H67.9369L70.9905 18.9563H74.7382L75.2934 16.1574H71.6151L71.7539 15.5277C71.9621 14.3382 72.3785 13.0087 74.2524 13.0087C75.3628 13.0087 76.4038 13.0787 77.4448 13.5685L78 10.6297C76.8202 10.2099 75.571 10 74.3912 10C70.3659 10 67.5899 12.379 66.5489 16.1574H64.8139L64.2587 18.9563H65.9937L62.9401 34Z" fill="#EA1D2C"/>
<path d="M78.8843 30.2551C85.0895 30.2551 89.3967 24.8208 89.3967 20.3746C89.3967 17.0575 86.2576 15.646 83.1915 15.646C76.4022 15.646 72.6791 21.5038 72.6791 25.5266C72.6791 28.8436 75.8912 30.2551 78.8843 30.2551ZM95.5289 30.2551C101.734 30.2551 106.041 24.8208 106.041 20.3746C106.041 17.0575 102.829 15.646 99.7631 15.646C92.9738 15.646 89.2507 21.5038 89.2507 25.5266C89.2507 28.8436 92.5358 30.2551 95.5289 30.2551ZM114.583 29.9728H119.766L124 10H118.744L117.503 15.9283L115.313 15.7166C110.202 15.7166 105.53 22.0684 105.53 26.5852C105.53 28.4201 106.771 30.2551 108.888 30.2551C111.882 30.2551 113.999 28.8436 114.875 27.4321H115.167L114.583 29.9728ZM98.376 40.4885C94.2961 43.7562 89.0561 45.352 83.7755 44.9348C76.8402 44.5113 71.876 39.3593 71 33.925H71.292C72.8981 37.3126 76.7672 40.4885 81.5124 40.9825C86.3306 41.5471 92.0978 39.4299 95.2369 36.5363L91.7328 33.925H102.318L99.9821 44.7936L98.449 40.5591L98.376 40.4885Z" fill="#EA1D2C"/>
<path d="M6 30.168C4.88 30.168 3.88 30 3 29.664C2.12 29.328 1.432 28.856 0.936 28.248C0.44 27.624 0.192 26.912 0.192 26.112C0.192 25.968 0.208 25.752 0.24 25.464H4.776C4.76 25.912 4.896 26.256 5.184 26.496C5.472 26.736 5.872 26.856 6.384 26.856C6.784 26.856 7.112 26.776 7.368 26.616C7.64 26.456 7.776 26.248 7.776 25.992C7.776 25.688 7.608 25.456 7.272 25.296C6.936 25.12 6.376 24.904 5.592 24.648C4.68 24.36 3.928 24.08 3.336 23.808C2.744 23.536 2.224 23.136 1.776 22.608C1.344 22.08 1.128 21.4 1.128 20.568C1.128 19.768 1.36 19.048 1.824 18.408C2.304 17.768 2.976 17.272 3.84 16.92C4.704 16.552 5.704 16.368 6.84 16.368C8.056 16.368 9.104 16.576 9.984 16.992C10.88 17.392 11.544 17.952 11.976 18.672C12.424 19.392 12.624 20.192 12.576 21.072H8.352C8.368 20.64 8.24 20.304 7.968 20.064C7.696 19.808 7.304 19.68 6.792 19.68C6.424 19.68 6.12 19.76 5.88 19.92C5.64 20.08 5.52 20.288 5.52 20.544C5.52 20.848 5.688 21.088 6.024 21.264C6.376 21.44 6.96 21.664 7.776 21.936C8.672 22.224 9.416 22.512 10.008 22.8C10.616 23.072 11.136 23.464 11.568 23.976C12 24.472 12.216 25.112 12.216 25.896C12.216 27.224 11.64 28.272 10.488 29.04C9.336 29.792 7.84 30.168 6 30.168ZM20.5286 18.408C21.0086 17.784 21.6166 17.288 22.3526 16.92C23.0886 16.552 23.9126 16.368 24.8246 16.368C26.2326 16.368 27.3606 16.832 28.2086 17.76C29.0726 18.688 29.5046 19.96 29.5046 21.576C29.5046 22.088 29.4566 22.648 29.3606 23.256C29.1046 24.648 28.6326 25.872 27.9446 26.928C27.2566 27.968 26.4246 28.768 25.4486 29.328C24.4886 29.888 23.4726 30.168 22.4006 30.168C21.4886 30.168 20.7286 29.984 20.1206 29.616C19.5286 29.248 19.0966 28.752 18.8246 28.128L17.3606 36.432H12.6566L16.1606 16.536H20.8646L20.5286 18.408ZM24.5606 23.256C24.6086 23.016 24.6326 22.784 24.6326 22.56C24.6326 21.904 24.4406 21.392 24.0566 21.024C23.6886 20.656 23.2086 20.472 22.6166 20.472C21.9286 20.472 21.2966 20.72 20.7206 21.216C20.1606 21.712 19.8086 22.392 19.6646 23.256C19.6166 23.496 19.5926 23.72 19.5926 23.928C19.5926 24.6 19.7766 25.128 20.1446 25.512C20.5286 25.88 21.0166 26.064 21.6086 26.064C22.3126 26.064 22.9446 25.816 23.5046 25.32C24.0646 24.808 24.4166 24.12 24.5606 23.256ZM36.3371 30.168C35.1691 30.168 34.1291 29.936 33.2171 29.472C32.3211 29.008 31.6251 28.352 31.1291 27.504C30.6331 26.656 30.3851 25.664 30.3851 24.528C30.3851 22.992 30.7451 21.6 31.4651 20.352C32.2011 19.104 33.2091 18.128 34.4891 17.424C35.7691 16.72 37.2011 16.368 38.7851 16.368C39.9531 16.368 40.9851 16.6 41.8811 17.064C42.7931 17.528 43.4971 18.192 43.9931 19.056C44.5051 19.904 44.7611 20.896 44.7611 22.032C44.7611 23.584 44.3931 24.984 43.6571 26.232C42.9211 27.464 41.9131 28.432 40.6331 29.136C39.3531 29.824 37.9211 30.168 36.3371 30.168ZM37.0571 26.112C37.6171 26.112 38.1131 25.936 38.5451 25.584C38.9931 25.232 39.3291 24.776 39.5531 24.216C39.7931 23.656 39.9131 23.08 39.9131 22.488C39.9131 21.816 39.7371 21.304 39.3851 20.952C39.0491 20.6 38.6091 20.424 38.0651 20.424C37.4891 20.424 36.9851 20.6 36.5531 20.952C36.1371 21.304 35.8091 21.76 35.5691 22.32C35.3451 22.88 35.2331 23.464 35.2331 24.072C35.2331 24.744 35.4011 25.256 35.7371 25.608C36.0731 25.944 36.5131 26.112 37.0571 26.112ZM51.6909 24.96C51.6749 25.04 51.6669 25.136 51.6669 25.248C51.6669 25.504 51.7389 25.696 51.8829 25.824C52.0429 25.936 52.2989 25.992 52.6509 25.992H54.0189L53.2989 30H51.2349C48.3069 30 46.8429 28.768 46.8429 26.304C46.8429 25.888 46.8909 25.416 46.9869 24.888L47.7789 20.448H46.1229L46.8189 16.536H48.4749L49.0509 13.272H53.7789L53.2029 16.536H55.6269L54.9309 20.448H52.5069L51.6909 24.96Z" fill="#EA1D2C"/>
</svg>
